# xmcd
#
# Track frame offsets:
#	150
#	22535
#	45342
#	63407
#	80885
#	101505
#	124017
#	149097
#	167630
#
# Disc length: 2626 seconds
# Revision: 10
# Processed by: cddbd v1.5.2PL0 Copyright (c) Steve Scherf et al.
# Submitted via: dBpowerAMP V12.0
#
DISCID=700a4009
DTITLE=Johnny Copeland, Albert Collins, Robert Cray - Showdown!
DYEAR=1985
DGENRE=Blues
TTITLE0=T-Bone Shuffle
TTITLE1=The Moon Is Full
TTITLE2=Lion's Den
TTITLE3=She's into Something
TTITLE4=Bring Your Fine Self Home
TTITLE5=Black Cat Bone
TTITLE6=The Dream
TTITLE7=Albert's Alley
TTITLE8=Blackjack
EXTD=
EXTT0=
EXTT1=
EXTT2=
EXTT3=
EXTT4=
EXTT5=
EXTT6=
EXTT7=
EXTT8=
PLAYORDER=
